<mxfile host="app.diagrams.net" agent="Mozilla/5.0 (Windows NT 10.0; Win64; x64) AppleWebKit/537.36 (KHTML, like Gecko) Chrome/138.0.0.0 Safari/537.36" version="28.0.6">
  <diagram name="Página-1" id="_a9hSrrYsIYk7JXkz2SV">
    <mxGraphModel dx="2036" dy="1875" grid="1" gridSize="10" guides="1" tooltips="1" connect="1" arrows="1" fold="1" page="1" pageScale="1" pageWidth="827" pageHeight="1169" math="0" shadow="0">
      <root>
        <mxCell id="0" />
        <mxCell id="1" parent="0" />
        <mxCell id="15DjJY8WxhHyjG8svjem-1" value="Paciente" style="ellipse;whiteSpace=wrap;html=1;fontSize=10;fillColor=#FFB366;" vertex="1" parent="1">
          <mxGeometry x="121" y="200.5" width="120" height="80" as="geometry" />
        </mxCell>
        <mxCell id="15DjJY8WxhHyjG8svjem-2" value="Especialidad" style="ellipse;whiteSpace=wrap;html=1;fillColor=#FFB366;" vertex="1" parent="1">
          <mxGeometry x="600" y="200" width="120" height="80" as="geometry" />
        </mxCell>
        <mxCell id="15DjJY8WxhHyjG8svjem-3" value="Medico" style="ellipse;whiteSpace=wrap;html=1;fillColor=#FFB366;" vertex="1" parent="1">
          <mxGeometry x="599" y="-60" width="120" height="80" as="geometry" />
        </mxCell>
        <mxCell id="15DjJY8WxhHyjG8svjem-4" value="Cita" style="ellipse;whiteSpace=wrap;html=1;fillColor=#FFB366;" vertex="1" parent="1">
          <mxGeometry x="121" y="-60" width="120" height="80" as="geometry" />
        </mxCell>
        <mxCell id="15DjJY8WxhHyjG8svjem-5" value="" style="endArrow=none;html=1;rounded=0;exitX=1;exitY=1;exitDx=0;exitDy=0;fontSize=10;" edge="1" parent="1" source="15DjJY8WxhHyjG8svjem-1" target="15DjJY8WxhHyjG8svjem-6">
          <mxGeometry width="50" height="50" relative="1" as="geometry">
            <mxPoint x="410" y="270" as="sourcePoint" />
            <mxPoint x="320" y="200" as="targetPoint" />
          </mxGeometry>
        </mxCell>
        <mxCell id="15DjJY8WxhHyjG8svjem-6" value="correo" style="ellipse;whiteSpace=wrap;html=1;fontSize=10;" vertex="1" parent="1">
          <mxGeometry x="282.5" y="290" width="75" height="50" as="geometry" />
        </mxCell>
        <mxCell id="15DjJY8WxhHyjG8svjem-7" value="teléfono" style="ellipse;whiteSpace=wrap;html=1;fontSize=10;" vertex="1" parent="1">
          <mxGeometry x="207.5" y="330" width="75" height="50" as="geometry" />
        </mxCell>
        <mxCell id="15DjJY8WxhHyjG8svjem-8" value="" style="endArrow=none;html=1;rounded=0;exitX=0.5;exitY=1;exitDx=0;exitDy=0;entryX=0.5;entryY=0;entryDx=0;entryDy=0;fontSize=10;" edge="1" parent="1" source="15DjJY8WxhHyjG8svjem-1" target="15DjJY8WxhHyjG8svjem-7">
          <mxGeometry width="50" height="50" relative="1" as="geometry">
            <mxPoint x="270" y="170" as="sourcePoint" />
            <mxPoint x="270" y="190" as="targetPoint" />
          </mxGeometry>
        </mxCell>
        <mxCell id="15DjJY8WxhHyjG8svjem-9" value="apellidos" style="ellipse;whiteSpace=wrap;html=1;fontSize=10;" vertex="1" parent="1">
          <mxGeometry x="-25" y="214.5" width="75" height="50" as="geometry" />
        </mxCell>
        <mxCell id="15DjJY8WxhHyjG8svjem-10" value="" style="endArrow=none;html=1;rounded=0;exitX=0;exitY=0.5;exitDx=0;exitDy=0;entryX=1;entryY=0.5;entryDx=0;entryDy=0;fontSize=10;" edge="1" parent="1" source="15DjJY8WxhHyjG8svjem-1" target="15DjJY8WxhHyjG8svjem-9">
          <mxGeometry width="50" height="50" relative="1" as="geometry">
            <mxPoint x="260" y="130" as="sourcePoint" />
            <mxPoint x="231" y="159" as="targetPoint" />
          </mxGeometry>
        </mxCell>
        <mxCell id="15DjJY8WxhHyjG8svjem-11" value="nombres" style="ellipse;whiteSpace=wrap;html=1;fontSize=10;" vertex="1" parent="1">
          <mxGeometry x="5" y="290" width="75" height="50" as="geometry" />
        </mxCell>
        <mxCell id="15DjJY8WxhHyjG8svjem-12" value="" style="endArrow=none;html=1;rounded=0;exitX=1;exitY=0;exitDx=0;exitDy=0;fontSize=10;entryX=0;entryY=1;entryDx=0;entryDy=0;" edge="1" parent="1" source="15DjJY8WxhHyjG8svjem-11" target="15DjJY8WxhHyjG8svjem-1">
          <mxGeometry width="50" height="50" relative="1" as="geometry">
            <mxPoint x="410" y="210" as="sourcePoint" />
            <mxPoint x="110" y="290" as="targetPoint" />
          </mxGeometry>
        </mxCell>
        <mxCell id="15DjJY8WxhHyjG8svjem-15" value="" style="endArrow=none;html=1;rounded=0;exitX=0;exitY=0.5;exitDx=0;exitDy=0;entryX=1;entryY=0.5;entryDx=0;entryDy=0;fontSize=10;" edge="1" parent="1" source="15DjJY8WxhHyjG8svjem-16" target="15DjJY8WxhHyjG8svjem-1">
          <mxGeometry width="50" height="50" relative="1" as="geometry">
            <mxPoint x="300" y="237.5" as="sourcePoint" />
            <mxPoint x="241" y="242.5" as="targetPoint" />
          </mxGeometry>
        </mxCell>
        <mxCell id="15DjJY8WxhHyjG8svjem-16" value="id_paciente" style="ellipse;whiteSpace=wrap;html=1;fontSize=10;" vertex="1" parent="1">
          <mxGeometry x="300" y="215.5" width="75" height="50" as="geometry" />
        </mxCell>
        <mxCell id="15DjJY8WxhHyjG8svjem-17" value="PK" style="rounded=0;whiteSpace=wrap;html=1;fontSize=10;fillColor=#E6E6E6;" vertex="1" parent="1">
          <mxGeometry x="317.5" y="214.5" width="40" height="20" as="geometry" />
        </mxCell>
        <mxCell id="15DjJY8WxhHyjG8svjem-18" value="fecha_de_nacimiento" style="ellipse;whiteSpace=wrap;html=1;fontSize=10;" vertex="1" parent="1">
          <mxGeometry x="80" y="340" width="75" height="50" as="geometry" />
        </mxCell>
        <mxCell id="15DjJY8WxhHyjG8svjem-19" value="" style="endArrow=none;html=1;rounded=0;exitX=0.5;exitY=1;exitDx=0;exitDy=0;entryX=1;entryY=0.5;entryDx=0;entryDy=0;fontSize=10;" edge="1" parent="1" source="15DjJY8WxhHyjG8svjem-1" target="15DjJY8WxhHyjG8svjem-18">
          <mxGeometry width="50" height="50" relative="1" as="geometry">
            <mxPoint x="144" y="269" as="sourcePoint" />
            <mxPoint x="193" y="248.5" as="targetPoint" />
          </mxGeometry>
        </mxCell>
        <mxCell id="15DjJY8WxhHyjG8svjem-20" value="id_especialidad" style="ellipse;whiteSpace=wrap;html=1;" vertex="1" parent="1">
          <mxGeometry x="720" y="150" width="75" height="50" as="geometry" />
        </mxCell>
        <mxCell id="15DjJY8WxhHyjG8svjem-21" value="descripcion" style="ellipse;whiteSpace=wrap;html=1;" vertex="1" parent="1">
          <mxGeometry x="720" y="280" width="75" height="50" as="geometry" />
        </mxCell>
        <mxCell id="15DjJY8WxhHyjG8svjem-22" value="nombre" style="ellipse;whiteSpace=wrap;html=1;" vertex="1" parent="1">
          <mxGeometry x="752" y="215" width="75" height="50" as="geometry" />
        </mxCell>
        <mxCell id="15DjJY8WxhHyjG8svjem-23" value="PK" style="rounded=0;whiteSpace=wrap;html=1;fillColor=#E6E6E6;" vertex="1" parent="1">
          <mxGeometry x="737.5" y="150" width="40" height="20" as="geometry" />
        </mxCell>
        <mxCell id="15DjJY8WxhHyjG8svjem-24" value="" style="endArrow=none;html=1;rounded=0;exitX=0;exitY=1;exitDx=0;exitDy=0;entryX=1;entryY=0;entryDx=0;entryDy=0;" edge="1" parent="1" source="15DjJY8WxhHyjG8svjem-20" target="15DjJY8WxhHyjG8svjem-2">
          <mxGeometry width="50" height="50" relative="1" as="geometry">
            <mxPoint x="600" y="160" as="sourcePoint" />
            <mxPoint x="600" y="220" as="targetPoint" />
          </mxGeometry>
        </mxCell>
        <mxCell id="15DjJY8WxhHyjG8svjem-25" value="" style="endArrow=none;html=1;rounded=0;entryX=0;entryY=0;entryDx=0;entryDy=0;exitX=1;exitY=1;exitDx=0;exitDy=0;" edge="1" parent="1" source="15DjJY8WxhHyjG8svjem-2" target="15DjJY8WxhHyjG8svjem-21">
          <mxGeometry width="50" height="50" relative="1" as="geometry">
            <mxPoint x="440" y="220" as="sourcePoint" />
            <mxPoint x="490" y="170" as="targetPoint" />
          </mxGeometry>
        </mxCell>
        <mxCell id="15DjJY8WxhHyjG8svjem-26" value="horario" style="ellipse;whiteSpace=wrap;html=1;fontSize=10;" vertex="1" parent="1">
          <mxGeometry x="810" y="-45.5" width="75" height="50" as="geometry" />
        </mxCell>
        <mxCell id="15DjJY8WxhHyjG8svjem-27" value="id_especialidad2" style="ellipse;whiteSpace=wrap;html=1;fontSize=10;" vertex="1" parent="1">
          <mxGeometry x="810" y="-133.5" width="75" height="50" as="geometry" />
        </mxCell>
        <mxCell id="15DjJY8WxhHyjG8svjem-28" value="apellidos" style="ellipse;whiteSpace=wrap;html=1;fontSize=10;" vertex="1" parent="1">
          <mxGeometry x="619.5" y="-210" width="75" height="50" as="geometry" />
        </mxCell>
        <mxCell id="15DjJY8WxhHyjG8svjem-29" value="nombres" style="ellipse;whiteSpace=wrap;html=1;fontSize=10;" vertex="1" parent="1">
          <mxGeometry x="450" y="-113.5" width="75" height="50" as="geometry" />
        </mxCell>
        <mxCell id="15DjJY8WxhHyjG8svjem-30" value="id_medico" style="ellipse;whiteSpace=wrap;html=1;fontSize=10;" vertex="1" parent="1">
          <mxGeometry x="720" y="-183.5" width="75" height="50" as="geometry" />
        </mxCell>
        <mxCell id="15DjJY8WxhHyjG8svjem-31" value="consultorio" style="ellipse;whiteSpace=wrap;html=1;fontSize=10;" vertex="1" parent="1">
          <mxGeometry x="510" y="-168.5" width="75" height="50" as="geometry" />
        </mxCell>
        <mxCell id="15DjJY8WxhHyjG8svjem-32" value="" style="endArrow=none;html=1;rounded=0;exitX=1;exitY=0.5;exitDx=0;exitDy=0;entryX=0;entryY=0.5;entryDx=0;entryDy=0;" edge="1" parent="1" source="15DjJY8WxhHyjG8svjem-29" target="15DjJY8WxhHyjG8svjem-3">
          <mxGeometry width="50" height="50" relative="1" as="geometry">
            <mxPoint x="770" y="50" as="sourcePoint" />
            <mxPoint x="820" as="targetPoint" />
          </mxGeometry>
        </mxCell>
        <mxCell id="15DjJY8WxhHyjG8svjem-33" value="" style="endArrow=none;html=1;rounded=0;exitX=1;exitY=0.5;exitDx=0;exitDy=0;entryX=0;entryY=0.5;entryDx=0;entryDy=0;" edge="1" parent="1" source="15DjJY8WxhHyjG8svjem-3" target="15DjJY8WxhHyjG8svjem-26">
          <mxGeometry width="50" height="50" relative="1" as="geometry">
            <mxPoint x="720" y="-29.909999999999997" as="sourcePoint" />
            <mxPoint x="786" y="-29.909999999999997" as="targetPoint" />
          </mxGeometry>
        </mxCell>
        <mxCell id="15DjJY8WxhHyjG8svjem-37" value="" style="endArrow=none;html=1;rounded=0;exitX=1;exitY=0.5;exitDx=0;exitDy=0;entryX=0;entryY=0;entryDx=0;entryDy=0;" edge="1" parent="1" source="15DjJY8WxhHyjG8svjem-31" target="15DjJY8WxhHyjG8svjem-3">
          <mxGeometry width="50" height="50" relative="1" as="geometry">
            <mxPoint x="590" y="-70" as="sourcePoint" />
            <mxPoint x="656" y="-70" as="targetPoint" />
          </mxGeometry>
        </mxCell>
        <mxCell id="15DjJY8WxhHyjG8svjem-38" value="" style="endArrow=none;html=1;rounded=0;entryX=0.5;entryY=1;entryDx=0;entryDy=0;exitX=0.5;exitY=0;exitDx=0;exitDy=0;" edge="1" parent="1" source="15DjJY8WxhHyjG8svjem-3" target="15DjJY8WxhHyjG8svjem-28">
          <mxGeometry width="50" height="50" relative="1" as="geometry">
            <mxPoint x="770" y="59" as="sourcePoint" />
            <mxPoint x="820" y="9" as="targetPoint" />
          </mxGeometry>
        </mxCell>
        <mxCell id="15DjJY8WxhHyjG8svjem-39" value="" style="endArrow=none;html=1;rounded=0;entryX=0.5;entryY=1;entryDx=0;entryDy=0;exitX=0.5;exitY=0;exitDx=0;exitDy=0;" edge="1" parent="1" source="15DjJY8WxhHyjG8svjem-3" target="15DjJY8WxhHyjG8svjem-30">
          <mxGeometry width="50" height="50" relative="1" as="geometry">
            <mxPoint x="770" y="59" as="sourcePoint" />
            <mxPoint x="820" y="9" as="targetPoint" />
          </mxGeometry>
        </mxCell>
        <mxCell id="15DjJY8WxhHyjG8svjem-40" value="" style="endArrow=none;html=1;rounded=0;entryX=0;entryY=1;entryDx=0;entryDy=0;exitX=1;exitY=0;exitDx=0;exitDy=0;" edge="1" parent="1" source="15DjJY8WxhHyjG8svjem-3" target="15DjJY8WxhHyjG8svjem-27">
          <mxGeometry width="50" height="50" relative="1" as="geometry">
            <mxPoint x="770" y="50" as="sourcePoint" />
            <mxPoint x="820" as="targetPoint" />
          </mxGeometry>
        </mxCell>
        <mxCell id="15DjJY8WxhHyjG8svjem-41" value="FK" style="rounded=0;whiteSpace=wrap;html=1;fillColor=#33FF33;" vertex="1" parent="1">
          <mxGeometry x="827.5" y="-133.5" width="40" height="20" as="geometry" />
        </mxCell>
        <mxCell id="15DjJY8WxhHyjG8svjem-42" value="PK" style="rounded=0;whiteSpace=wrap;html=1;fillColor=#E6E6E6;" vertex="1" parent="1">
          <mxGeometry x="737.5" y="-183.5" width="40" height="20" as="geometry" />
        </mxCell>
        <mxCell id="15DjJY8WxhHyjG8svjem-47" value="id_paciente2" style="ellipse;whiteSpace=wrap;html=1;fontSize=10;" vertex="1" parent="1">
          <mxGeometry x="7.5" y="90" width="75" height="50" as="geometry" />
        </mxCell>
        <mxCell id="15DjJY8WxhHyjG8svjem-48" value="FK" style="rounded=0;whiteSpace=wrap;html=1;fillColor=#33FF33;" vertex="1" parent="1">
          <mxGeometry x="25" y="90" width="40" height="20" as="geometry" />
        </mxCell>
        <mxCell id="15DjJY8WxhHyjG8svjem-49" value="id_medico2" style="ellipse;whiteSpace=wrap;html=1;fontSize=10;" vertex="1" parent="1">
          <mxGeometry x="7.5" y="-142.5" width="75" height="50" as="geometry" />
        </mxCell>
        <mxCell id="15DjJY8WxhHyjG8svjem-50" value="FK" style="rounded=0;whiteSpace=wrap;html=1;fillColor=#33FF33;" vertex="1" parent="1">
          <mxGeometry x="25" y="-142.5" width="40" height="20" as="geometry" />
        </mxCell>
        <mxCell id="15DjJY8WxhHyjG8svjem-51" value="id_cita" style="ellipse;whiteSpace=wrap;html=1;fontSize=10;" vertex="1" parent="1">
          <mxGeometry x="242.5" y="-127.5" width="75" height="50" as="geometry" />
        </mxCell>
        <mxCell id="15DjJY8WxhHyjG8svjem-52" value="PK" style="rounded=0;whiteSpace=wrap;html=1;fillColor=#E6E6E6;" vertex="1" parent="1">
          <mxGeometry x="260" y="-127.5" width="40" height="20" as="geometry" />
        </mxCell>
        <mxCell id="15DjJY8WxhHyjG8svjem-53" value="estado" style="ellipse;whiteSpace=wrap;html=1;fontSize=10;" vertex="1" parent="1">
          <mxGeometry x="132.5" y="-169" width="75" height="50" as="geometry" />
        </mxCell>
        <mxCell id="15DjJY8WxhHyjG8svjem-55" value="hora_cita" style="ellipse;whiteSpace=wrap;html=1;fontSize=10;" vertex="1" parent="1">
          <mxGeometry x="-25" y="-57.5" width="75" height="50" as="geometry" />
        </mxCell>
        <mxCell id="15DjJY8WxhHyjG8svjem-57" value="fecha_cita" style="ellipse;whiteSpace=wrap;html=1;fontSize=10;" vertex="1" parent="1">
          <mxGeometry x="-25" y="20" width="75" height="50" as="geometry" />
        </mxCell>
        <mxCell id="15DjJY8WxhHyjG8svjem-59" value="" style="endArrow=none;html=1;rounded=0;exitX=1;exitY=0;exitDx=0;exitDy=0;entryX=0.5;entryY=1;entryDx=0;entryDy=0;" edge="1" parent="1" source="15DjJY8WxhHyjG8svjem-4" target="15DjJY8WxhHyjG8svjem-51">
          <mxGeometry width="50" height="50" relative="1" as="geometry">
            <mxPoint x="301" y="-70" as="sourcePoint" />
            <mxPoint x="351" y="-120" as="targetPoint" />
          </mxGeometry>
        </mxCell>
        <mxCell id="15DjJY8WxhHyjG8svjem-60" value="" style="endArrow=none;html=1;rounded=0;exitX=0.5;exitY=0;exitDx=0;exitDy=0;entryX=0.5;entryY=1;entryDx=0;entryDy=0;" edge="1" parent="1" source="15DjJY8WxhHyjG8svjem-4" target="15DjJY8WxhHyjG8svjem-53">
          <mxGeometry width="50" height="50" relative="1" as="geometry">
            <mxPoint x="301" y="-70" as="sourcePoint" />
            <mxPoint x="351" y="-120" as="targetPoint" />
          </mxGeometry>
        </mxCell>
        <mxCell id="15DjJY8WxhHyjG8svjem-61" value="" style="endArrow=none;html=1;rounded=0;exitX=1;exitY=0.5;exitDx=0;exitDy=0;entryX=0;entryY=0.5;entryDx=0;entryDy=0;" edge="1" parent="1" source="15DjJY8WxhHyjG8svjem-55" target="15DjJY8WxhHyjG8svjem-4">
          <mxGeometry width="50" height="50" relative="1" as="geometry">
            <mxPoint x="301" y="-70" as="sourcePoint" />
            <mxPoint x="351" y="-120" as="targetPoint" />
          </mxGeometry>
        </mxCell>
        <mxCell id="15DjJY8WxhHyjG8svjem-62" value="" style="endArrow=none;html=1;rounded=0;exitX=1;exitY=1;exitDx=0;exitDy=0;entryX=0;entryY=0;entryDx=0;entryDy=0;" edge="1" parent="1" source="15DjJY8WxhHyjG8svjem-49" target="15DjJY8WxhHyjG8svjem-4">
          <mxGeometry width="50" height="50" relative="1" as="geometry">
            <mxPoint x="301" y="-70" as="sourcePoint" />
            <mxPoint x="351" y="-120" as="targetPoint" />
          </mxGeometry>
        </mxCell>
        <mxCell id="15DjJY8WxhHyjG8svjem-63" value="" style="endArrow=none;html=1;rounded=0;exitX=1;exitY=0.5;exitDx=0;exitDy=0;entryX=0;entryY=1;entryDx=0;entryDy=0;" edge="1" parent="1" source="15DjJY8WxhHyjG8svjem-57" target="15DjJY8WxhHyjG8svjem-4">
          <mxGeometry width="50" height="50" relative="1" as="geometry">
            <mxPoint x="301" y="110" as="sourcePoint" />
            <mxPoint x="351" y="60" as="targetPoint" />
          </mxGeometry>
        </mxCell>
        <mxCell id="15DjJY8WxhHyjG8svjem-64" value="" style="endArrow=none;html=1;rounded=0;entryX=0.5;entryY=1;entryDx=0;entryDy=0;exitX=0.5;exitY=0;exitDx=0;exitDy=0;" edge="1" parent="1" source="15DjJY8WxhHyjG8svjem-47" target="15DjJY8WxhHyjG8svjem-4">
          <mxGeometry width="50" height="50" relative="1" as="geometry">
            <mxPoint x="300" y="110" as="sourcePoint" />
            <mxPoint x="350" y="60" as="targetPoint" />
          </mxGeometry>
        </mxCell>
        <mxCell id="15DjJY8WxhHyjG8svjem-65" value="involucra" style="rhombus;whiteSpace=wrap;html=1;fillColor=#33FFFF;" vertex="1" parent="1">
          <mxGeometry x="141" y="60" width="80" height="80" as="geometry" />
        </mxCell>
        <mxCell id="15DjJY8WxhHyjG8svjem-66" value="involucra" style="rhombus;whiteSpace=wrap;html=1;fillColor=#33FFFF;" vertex="1" parent="1">
          <mxGeometry x="374" y="-60" width="80" height="80" as="geometry" />
        </mxCell>
        <mxCell id="15DjJY8WxhHyjG8svjem-67" value="pertenece" style="rhombus;whiteSpace=wrap;html=1;fillColor=#33FFFF;" vertex="1" parent="1">
          <mxGeometry x="620" y="60" width="80" height="80" as="geometry" />
        </mxCell>
        <mxCell id="15DjJY8WxhHyjG8svjem-70" value="" style="endArrow=none;html=1;rounded=0;exitX=0.5;exitY=0;exitDx=0;exitDy=0;entryX=0.5;entryY=1;entryDx=0;entryDy=0;" edge="1" parent="1" source="15DjJY8WxhHyjG8svjem-1" target="15DjJY8WxhHyjG8svjem-65">
          <mxGeometry width="50" height="50" relative="1" as="geometry">
            <mxPoint x="390" y="110" as="sourcePoint" />
            <mxPoint x="440" y="60" as="targetPoint" />
          </mxGeometry>
        </mxCell>
        <mxCell id="15DjJY8WxhHyjG8svjem-71" value="" style="endArrow=none;html=1;rounded=0;exitX=0.5;exitY=0;exitDx=0;exitDy=0;entryX=0.5;entryY=1;entryDx=0;entryDy=0;" edge="1" parent="1" source="15DjJY8WxhHyjG8svjem-65" target="15DjJY8WxhHyjG8svjem-4">
          <mxGeometry width="50" height="50" relative="1" as="geometry">
            <mxPoint x="390" y="110" as="sourcePoint" />
            <mxPoint x="440" y="60" as="targetPoint" />
          </mxGeometry>
        </mxCell>
        <mxCell id="15DjJY8WxhHyjG8svjem-72" value="" style="endArrow=none;html=1;rounded=0;exitX=1;exitY=0.5;exitDx=0;exitDy=0;entryX=0;entryY=0.5;entryDx=0;entryDy=0;" edge="1" parent="1" source="15DjJY8WxhHyjG8svjem-4" target="15DjJY8WxhHyjG8svjem-66">
          <mxGeometry width="50" height="50" relative="1" as="geometry">
            <mxPoint x="290" y="110" as="sourcePoint" />
            <mxPoint x="340" y="60" as="targetPoint" />
          </mxGeometry>
        </mxCell>
        <mxCell id="15DjJY8WxhHyjG8svjem-73" value="" style="endArrow=none;html=1;rounded=0;exitX=1;exitY=0.5;exitDx=0;exitDy=0;entryX=0;entryY=0.5;entryDx=0;entryDy=0;" edge="1" parent="1" source="15DjJY8WxhHyjG8svjem-66" target="15DjJY8WxhHyjG8svjem-3">
          <mxGeometry width="50" height="50" relative="1" as="geometry">
            <mxPoint x="400" y="150" as="sourcePoint" />
            <mxPoint x="533" y="150" as="targetPoint" />
          </mxGeometry>
        </mxCell>
        <mxCell id="15DjJY8WxhHyjG8svjem-74" value="" style="endArrow=none;html=1;rounded=0;entryX=0.5;entryY=1;entryDx=0;entryDy=0;exitX=0.5;exitY=0;exitDx=0;exitDy=0;" edge="1" parent="1" source="15DjJY8WxhHyjG8svjem-67" target="15DjJY8WxhHyjG8svjem-3">
          <mxGeometry width="50" height="50" relative="1" as="geometry">
            <mxPoint x="620" y="110" as="sourcePoint" />
            <mxPoint x="670" y="60" as="targetPoint" />
          </mxGeometry>
        </mxCell>
        <mxCell id="15DjJY8WxhHyjG8svjem-75" value="" style="endArrow=none;html=1;rounded=0;entryX=0.5;entryY=1;entryDx=0;entryDy=0;exitX=0.5;exitY=0;exitDx=0;exitDy=0;" edge="1" parent="1" source="15DjJY8WxhHyjG8svjem-2" target="15DjJY8WxhHyjG8svjem-67">
          <mxGeometry width="50" height="50" relative="1" as="geometry">
            <mxPoint x="661" y="190" as="sourcePoint" />
            <mxPoint x="660" y="150" as="targetPoint" />
          </mxGeometry>
        </mxCell>
      </root>
    </mxGraphModel>
  </diagram>
</mxfile>
